<svg xmlns="http://www.w3.org/2000/svg" version="1.1" xmlns:xlink="http://www.w3.org/1999/xlink" xmlns:svgjs="http://svgjs.com/svgjs" width="24" height="24"><svg xmlns="http://www.w3.org/2000/svg" fill="currentColor" aria-hidden="true" class="w-6 h-6 text-gray-800 dark:text-white" viewBox="0 0 24 24"><path fill-rule="evenodd" d="M7 4a7 7 0 0 1 12 5c0 2.4-1.2 3.9-2.2 5v.1c-1 1.3-1.8 2.2-1.8 3.9 0 .6-.4 1-1 1h-4a1 1 0 0 1-1-1c0-1.6-.8-2.6-1.8-3.9C6.2 12.8 5 11.4 5 9a7 7 0 0 1 2-5Zm2 17c0-.6.4-1 1-1h4a1 1 0 1 1 0 2h-4a1 1 0 0 1-1-1Zm1.6-13.4A2 2 0 0 1 12 7a1 1 0 1 0 0-2 4 4 0 0 0-4 4 1 1 0 0 0 2 0c0-.5.2-1 .6-1.4Z" clip-rule="evenodd"></path></svg><style>@media (prefers-color-scheme: light) { :root { filter: none; } }
@media (prefers-color-scheme: dark) { :root { filter: invert(100%); } }
</style></svg>