<?xml version="1.0" standalone="no"?>
<!DOCTYPE svg PUBLIC "-//W3C//DTD SVG 20010904//EN"
 "http://www.w3.org/TR/2001/REC-SVG-20010904/DTD/svg10.dtd">
<svg version="1.0" xmlns="http://www.w3.org/2000/svg"
 width="700.000000pt" height="700.000000pt" viewBox="0 0 700.000000 700.000000"
 preserveAspectRatio="xMidYMid meet">
<metadata>
Created by potrace 1.14, written by Peter Selinger 2001-2017
</metadata>
<g transform="translate(0.000000,700.000000) scale(0.100000,-0.100000)"
fill="#000000" stroke="none">
<path d="M3298 6295 c-2 -2 -37 -6 -78 -9 -751 -66 -1485 -479 -1956 -1101
-118 -156 -171 -243 -272 -445 -94 -190 -148 -329 -196 -510 -24 -92 -30 -115
-42 -190 -3 -19 -8 -38 -9 -41 -2 -3 -7 -28 -10 -55 -4 -27 -8 -60 -11 -74
-19 -112 -26 -494 -11 -640 35 -351 120 -645 277 -965 344 -699 946 -1212
1696 -1444 55 -17 109 -33 120 -36 303 -66 416 -80 679 -80 217 0 353 10 490
35 28 5 64 12 81 15 107 17 329 84 489 147 186 73 510 256 642 362 209 168
349 303 473 456 25 30 47 57 50 60 10 9 127 174 155 220 33 51 135 231 135
236 0 2 18 41 40 86 108 221 193 511 236 808 19 130 27 512 13 625 -4 39 -11
91 -13 116 -3 25 -13 81 -21 125 -9 43 -18 94 -21 113 -25 151 -120 414 -229
636 -231 468 -582 855 -1030 1135 -326 204 -729 348 -1105 396 -30 4 -71 9
-90 11 -41 5 -477 13 -482 8z m412 -1059 c281 -43 569 -189 774 -392 268 -268
407 -596 410 -969 1 -176 -6 -241 -40 -371 -64 -249 -198 -476 -383 -652 l-55
-52 -916 0 -916 0 -55 53 c-207 197 -348 455 -405 740 -34 172 -25 436 22 612
142 541 612 959 1159 1031 28 3 51 7 53 9 6 6 306 -3 352 -9z m661 -2705 c1
-3 2 -81 3 -173 1 -109 -2 -168 -9 -168 -13 -1 -1412 -1 -1600 0 l-141 0 2
173 c1 94 2 173 3 173 4 5 1741 0 1742 -5z m-528 -610 c14 -2 -4 -94 -29 -146
-53 -112 -172 -191 -297 -199 -168 -11 -333 123 -362 294 -4 26 -3 45 3 49 8
5 653 7 685 2z"/>
</g>
</svg>
